<?xml version="1.0" encoding="UTF-8"?>
<svg version="1.1" xmlns="http://www.w3.org/2000/svg" width="177" height="198">
<path d="M0 0 C58.41 0 116.82 0 177 0 C177 65.34 177 130.68 177 198 C118.59 198 60.18 198 0 198 C0 132.66 0 67.32 0 0 Z M145.5 29.5 C139.8525695 31.68981999 134.16062983 33.7064166 128.4375 35.6875 C126.68571454 36.29417895 124.93438113 36.90216547 123.18359375 37.51171875 C122.42618896 37.77428467 121.66878418 38.03685059 120.88842773 38.30737305 C118.94996143 38.97840546 118.94996143 38.97840546 117 40 C117 41.32 117 42.64 117 44 C119.41055254 45.66299965 119.41055254 45.66299965 122 47 C122.495 47.99 122.495 47.99 123 49 C122.34 49 121.68 49 121 49 C119.78995325 50.51331661 118.65876169 52.08982964 117.5625 53.6875 C113.50717602 59.41833261 109.09191358 64.73580307 104.515625 70.0546875 C102.28769332 72.66316651 100.12574996 75.30804561 98 78 C92.97342256 76.29639275 89.06210465 73.29460216 84.90429688 70.1015625 C81.14731799 67.36274712 78.6405615 66.3181486 74 67 C71.47859029 69.1020938 71.47859029 69.1020938 69 72 C66.88123303 73.84550544 64.73240584 75.65006463 62.57421875 77.44921875 C62.05472656 77.96097656 61.53523438 78.47273438 61 79 C61 79.66 61 80.32 61 81 C59.68 81.66 58.36 82.32 57 83 C57 83.66 57 84.32 57 85 C55.68 85.66 54.36 86.32 53 87 C53 87.66 53 88.32 53 89 C52.34 89 51.68 89 51 89 C49.56598074 90.42548006 49.56598074 90.42548006 48.05859375 92.328125 C45.09972619 95.81095069 41.99522154 99.04407602 38.72265625 102.234375 C37.79775391 103.13800781 36.87285156 104.04164062 35.91992188 104.97265625 C34.47882456 106.37336738 33.03755634 107.77394029 31.58764648 109.16552734 C30.16542483 110.53345849 28.7563153 111.91498146 27.34765625 113.296875 C26.09480835 114.50875488 26.09480835 114.50875488 24.81665039 115.74511719 C22.58175001 118.03653865 22.58175001 118.03653865 23 122 C32.16651698 123.35488054 32.16651698 123.35488054 40.80517578 120.93652344 C44.33300389 118.02456505 47.12196837 114.53413462 50 111 C50.99 110.505 50.99 110.505 52 110 C52 109.34 52 108.68 52 108 C52.59240479 107.73807861 53.18480957 107.47615723 53.79516602 107.20629883 C56.12014406 105.93426732 57.49988628 104.65106827 59.27734375 102.69921875 C59.87353516 102.05146484 60.46972656 101.40371094 61.08398438 100.73632812 C61.69564453 100.06021484 62.30730469 99.38410156 62.9375 98.6875 C64.15413534 97.35732924 65.37156858 96.02788779 66.58984375 94.69921875 C67.16718262 94.0654834 67.74452148 93.43174805 68.33935547 92.77880859 C69.8308762 91.18115789 71.36506264 89.65757681 72.94140625 88.14453125 C75.23083482 86.25497536 75.23083482 86.25497536 75 84 C77.97017121 84.59768859 79.97724657 85.47816783 82.42578125 87.25 C83.37420898 87.91515625 83.37420898 87.91515625 84.34179688 88.59375 C85.6478458 89.52571752 86.95000028 90.46316872 88.24804688 91.40625 C92.4307435 94.32184805 95.72301599 96.09898212 101 96 C104.7993075 93.68833983 107.32699385 90.59313689 110.0625 87.125 C114.15839997 82.01025345 118.38866427 77.03512357 122.67773438 72.08178711 C126.16143592 68.03676011 129.45863501 63.89536503 132.59765625 59.57421875 C134 58 134 58 137 57 C137.4021875 57.928125 137.4021875 57.928125 137.8125 58.875 C138.95556848 61.2995233 138.95556848 61.2995233 142 63 C142.99 63 143.98 63 145 63 C145.20157715 62.21874756 145.4031543 61.43749512 145.61083984 60.63256836 C146.53129991 57.0673056 147.45313761 53.50240041 148.375 49.9375 C148.69210938 48.70837891 149.00921875 47.47925781 149.3359375 46.21289062 C150.82583816 40.45504538 152.32128644 34.70593042 154 29 C150.58143258 27.81904034 148.82189842 28.16261232 145.5 29.5 Z M120 86 C119.97687745 97.3261163 119.95908536 108.65222703 119.94818783 119.97836208 C119.94295881 125.23696664 119.93586082 130.4955551 119.92456055 135.75415039 C119.91373234 140.82453127 119.90772331 145.89489662 119.90512276 150.96528816 C119.90326839 152.90426948 119.89964755 154.84324991 119.89426994 156.78222466 C119.8870604 159.4882176 119.88600902 162.19414556 119.88647461 164.90014648 C119.88287933 165.71006546 119.87928406 166.51998444 119.87557983 167.35444641 C119.54009298 170.97505862 119.54009298 170.97505862 121 174 C122.91458282 174.09971786 124.83282317 174.13080589 126.75 174.1328125 C127.9153125 174.13410156 129.080625 174.13539063 130.28125 174.13671875 C132.12203125 174.13091797 132.12203125 174.13091797 134 174.125 C135.2271875 174.12886719 136.454375 174.13273437 137.71875 174.13671875 C138.8840625 174.13542969 140.049375 174.13414062 141.25 174.1328125 C142.32765625 174.13168457 143.4053125 174.13055664 144.515625 174.12939453 C146.94219997 174.28092371 146.94219997 174.28092371 148 173 C148.09514592 170.29161914 148.12554932 167.60881487 148.11352539 164.90014648 C148.11367142 164.05143982 148.11381744 163.20273315 148.1139679 162.32830811 C148.11326848 159.50921109 148.10547478 156.69017929 148.09765625 153.87109375 C148.09579217 151.92196183 148.09436822 149.97282945 148.09336853 148.0236969 C148.08954255 142.88293168 148.07971159 137.74219453 148.06866455 132.60144043 C148.05845215 127.35994852 148.05387128 122.1184521 148.04882812 116.87695312 C148.03808939 106.58462306 148.02101201 96.29231386 148 86 C144.59193811 85.28539959 141.47381724 84.87186293 137.98828125 84.8671875 C137.06595703 84.86589844 136.14363281 84.86460938 135.19335938 84.86328125 C133.76733398 84.86908203 133.76733398 84.86908203 132.3125 84.875 C130.86907227 84.86919922 130.86907227 84.86919922 129.39648438 84.86328125 C128.47802734 84.86457031 127.55957031 84.86585937 126.61328125 84.8671875 C125.77579346 84.86831543 124.93830566 84.86944336 124.07543945 84.87060547 C121.93803315 84.86819533 121.93803315 84.86819533 120 86 Z M74 122 C73.56047987 124.15886125 73.56047987 124.15886125 73.64355469 126.57568359 C73.64055359 127.50029388 73.63755249 128.42490417 73.63446045 129.37753296 C73.64680725 130.37443146 73.65915405 131.37132996 73.671875 132.3984375 C73.67374817 133.4255484 73.67562134 134.4526593 73.67755127 135.51089478 C73.68427667 137.68470501 73.69820077 139.85850305 73.71875 142.03222656 C73.7498124 145.35493256 73.75971248 148.6771634 73.765625 152 C73.7747991 154.11198493 73.78517615 156.22396505 73.796875 158.3359375 C73.80112488 159.32878754 73.80537476 160.32163757 73.80975342 161.34457397 C73.81936096 162.27548859 73.82896851 163.2064032 73.83886719 164.16552734 C73.84569519 164.98032562 73.85252319 165.7951239 73.85955811 166.63461304 C73.97291803 169.46108635 73.97291803 169.46108635 75 174 C83.91 174 92.82 174 102 174 C102 156.18 102 138.36 102 120 C98.00442575 118.00221288 92.95548005 118.77123495 88.5625 118.75 C87.49966797 118.729375 86.43683594 118.70875 85.34179688 118.6875 C83.81329102 118.67976563 83.81329102 118.67976563 82.25390625 118.671875 C81.31877197 118.6625293 80.3836377 118.65318359 79.42016602 118.64355469 C76.48436266 119.07594376 75.79819241 119.68677179 74 122 Z M32 140 C30.04985199 143.90029603 29.75146792 145.26945581 29.76953125 149.4296875 C29.77146484 150.47253906 29.77339844 151.51539063 29.77539062 152.58984375 C29.78763672 153.67394531 29.79988281 154.75804687 29.8125 155.875 C29.81314453 156.95136719 29.81378906 158.02773437 29.81445312 159.13671875 C29.84311895 164.30293726 30.14299207 168.85795243 31 174 C39.91 174 48.82 174 58 174 C58.02293495 169.47926628 58.04285442 164.95873379 58.05493164 160.43798828 C58.05996552 158.89956987 58.06679308 157.36115625 58.07543945 155.82275391 C58.08754639 153.61359474 58.09323769 151.40449874 58.09765625 149.1953125 C58.10281754 148.50567413 58.10797882 147.81603577 58.11329651 147.10549927 C58.16318164 143.42940345 58.16318164 143.42940345 57 140 C48.75 140 40.5 140 32 140 Z " fill="#FFFFFF" transform="translate(0,0)"/>
</svg>
