<?xml version="1.0" encoding="UTF-8"?>
<svg version="1.1" xmlns="http://www.w3.org/2000/svg" width="1000" height="1000">
<path d="M0 0 C330 0 660 0 1000 0 C1000 330 1000 660 1000 1000 C670 1000 340 1000 0 1000 C0 670 0 340 0 0 Z M237.80078125 358.28125 C236.99256424 358.52641357 236.18434723 358.77157715 235.35163879 359.02416992 C232.66914753 359.84065539 229.99073659 360.6696728 227.3125 361.5 C225.42898501 362.0791382 223.54535634 362.65790676 221.66162109 363.23632812 C217.61183569 364.48183199 213.56405407 365.73364376 209.51708984 366.98828125 C203.8613051 368.7388685 198.1969451 370.46009035 192.53038025 372.17541504 C187.86446922 373.59093669 183.202963 375.02058317 178.54232788 376.45336914 C176.27064717 377.14912068 173.99739003 377.83974647 171.7225647 378.52514648 C168.52118283 379.49143738 165.32658206 380.47763453 162.1328125 381.46875 C161.17945511 381.75169922 160.22609772 382.03464844 159.24385071 382.32617188 C153.99383139 383.98092582 150.504639 385.51874557 147 390 C146.06895719 392.79312843 145.87253339 394.47441673 145.86628723 397.35992432 C145.86202225 398.25109955 145.85775726 399.14227478 145.85336304 400.06045532 C145.85381622 401.03598358 145.85426941 402.01151184 145.85473633 403.01660156 C145.85137772 404.04633087 145.8480191 405.07606018 145.84455872 406.13699341 C145.8350315 409.55488278 145.833104 412.97272316 145.83203125 416.390625 C145.82881735 418.77178976 145.82545318 421.15295431 145.82194519 423.53411865 C145.81594772 428.53772437 145.81410567 433.54131281 145.81469727 438.54492188 C145.81479834 444.9230315 145.80120562 451.30102844 145.78392506 457.67911148 C145.77273857 462.60541276 145.77078017 467.53168751 145.77130699 472.45800018 C145.77013459 474.80686579 145.76575483 477.15573225 145.75797462 479.50458527 C145.72096233 491.84462498 145.8573773 503.82353323 148 516 C148.14504471 516.90542542 148.29008942 517.81085083 148.43952942 518.74371338 C154.10751485 553.03220784 178.44572009 580.8274871 205.84912109 600.49511719 C216.39276074 607.8720746 227.52905351 614.19108065 239 620 C239.91136719 620.46792969 240.82273437 620.93585938 241.76171875 621.41796875 C246.17183165 623.55377549 248.14675522 624.19008464 253 623 C289.50585771 608.97594496 326.41984282 580.15974808 342.90039062 544.02587891 C352.23225418 522.3866987 353.16692047 500.48595448 353.1328125 477.2890625 C353.13348963 475.62543728 353.13446302 473.96181215 353.13571167 472.29818726 C353.13717355 468.83078051 353.13508605 465.36339977 353.13037109 461.89599609 C353.12583952 458.39988501 353.12578001 454.90382584 353.13037109 451.40771484 C353.14536543 439.93782183 353.11504545 428.46937261 353 417 C352.99350937 416.30112167 352.98701874 415.60224335 352.98033142 414.88218689 C352.93695809 410.55302482 352.85237584 406.22637551 352.7421875 401.8984375 C352.72858185 400.86087311 352.7149762 399.82330872 352.70095825 398.75430298 C352.51186834 393.09224766 352.01781521 389.33877263 348 385 C345.69778071 383.63130162 345.69778071 383.63130162 343.0234375 382.97265625 C341.98477539 382.66295898 340.94611328 382.35326172 339.87597656 382.03417969 C338.7206543 381.71352539 337.56533203 381.39287109 336.375 381.0625 C334.4702654 380.50293108 332.56555105 379.94329183 330.66125488 379.38223267 C328.46787808 378.73951526 326.27170908 378.10700607 324.07519531 377.47509766 C318.22124648 375.78305706 312.38827035 374.02246895 306.5546875 372.26171875 C304.34196809 371.59429163 302.12924016 370.92689276 299.91650391 370.25952148 C298.26053192 369.76003494 298.26053192 369.76003494 296.57110596 369.25045776 C289.25111439 367.0453663 281.92701118 364.85415939 274.59960938 362.67382812 C271.03284488 361.61175745 267.47203706 360.53302377 263.91601562 359.43554688 C263.13989929 359.19906433 262.36378296 358.96258179 261.56414795 358.71893311 C260.15296421 358.28877658 258.74361234 357.85253414 257.33673096 357.4085083 C250.15199576 355.23682279 244.84513973 356.08092862 237.80078125 358.28125 Z M387.84768677 394.50907898 C386.57795013 394.67108292 385.3082135 394.83308685 384 395 C383.97687857 407.499571 383.95908594 419.99913695 383.94818783 432.49872494 C383.94295856 438.30213613 383.93586013 444.10553275 383.92456055 449.90893555 C383.91373322 455.50450853 383.9077235 461.10006745 383.90512276 466.6956501 C383.90326823 468.83558944 383.89964709 470.97552796 383.89426994 473.11546135 C383.88706156 476.10164966 383.88600897 479.08777907 383.88647461 482.07397461 C383.88287933 482.96805023 383.87928406 483.86212585 383.87557983 484.78329468 C383.49005135 488.70541923 383.49005135 488.70541923 385 492 C386.41570123 492.08651611 387.835595 492.10704904 389.25390625 492.09765625 C390.10791016 492.09443359 390.96191406 492.09121094 391.84179688 492.08789062 C392.73962891 492.07951172 393.63746094 492.07113281 394.5625 492.0625 C395.91504883 492.05573242 395.91504883 492.05573242 397.29492188 492.04882812 C399.53001314 492.03700225 401.76497437 492.0205222 404 492 C404.15420398 484.41110021 404.30238115 476.82210277 404.4429636 469.23293877 C404.50843589 465.7086126 404.57594732 462.18435058 404.64819336 458.66015625 C404.73124824 454.6042681 404.80529965 450.5482582 404.87890625 446.4921875 C404.90594131 445.23260223 404.93297638 443.97301697 404.96083069 442.67526245 C404.98092697 441.49449127 405.00102325 440.31372009 405.02172852 439.09716797 C405.04171402 438.06236298 405.06169952 437.02755798 405.08229065 435.96139526 C404.99696841 432.8909021 404.57392963 430.01434675 404 427 C406.26141365 429.08208699 407.67019767 430.98723518 409.00537109 433.74951172 C409.36940033 434.49393524 409.73342957 435.23835876 410.10848999 436.00534058 C410.49292267 436.80537506 410.87735535 437.60540955 411.2734375 438.4296875 C412.10656083 440.12900922 412.93990096 441.82822467 413.7734375 443.52734375 C415.07593491 446.20055528 416.3751397 448.87528883 417.66992188 451.55224609 C418.92480034 454.14079106 420.19215116 456.7229376 421.4609375 459.3046875 C421.84132172 460.10067352 422.22170593 460.89665955 422.61361694 461.71676636 C424.84701223 466.24423086 427.06749573 469.6913113 431 473 C433.50595274 473.77756034 433.50595274 473.77756034 436.0625 473.625 C436.89910156 473.63789063 437.73570312 473.65078125 438.59765625 473.6640625 C442.97079698 472.45522685 444.54691401 468.76489794 446.75390625 465.0390625 C450.9885869 457.04530249 455.013986 448.96384487 458.9375 440.8125 C459.6646521 439.30647217 459.6646521 439.30647217 460.40649414 437.77001953 C460.85887451 436.8211084 461.31125488 435.87219727 461.77734375 434.89453125 C462.18202881 434.04737549 462.58671387 433.20021973 463.00366211 432.32739258 C463.90643924 430.21855298 464.52286914 428.23854702 465 426 C465.66 426 466.32 426 467 426 C466.75601219 427.2935289 466.75601219 427.2935289 466.50709534 428.6131897 C466.01934424 431.87080283 465.87953302 434.89865179 465.88647461 438.18896484 C465.88655014 439.38975677 465.88662567 440.59054871 465.88670349 441.82772827 C465.89186478 443.10918732 465.89702606 444.39064636 465.90234375 445.7109375 C465.90421105 447.04757636 465.90563348 448.38421592 465.90663147 449.72085571 C465.91043205 453.22249269 465.92024109 456.72408756 465.93133545 460.22570801 C465.94160268 463.80541413 465.94614043 467.38512712 465.95117188 470.96484375 C465.96186578 477.97658144 465.97944242 484.98828436 466 492 C472.6 492 479.2 492 486 492 C486 459.99 486 427.98 486 395 C475.12973011 393.55415709 475.12973011 393.55415709 464 394 C461.0489955 396.58861955 459.24728103 399.03869676 457.58984375 402.578125 C457.1623584 403.48071045 456.73487305 404.3832959 456.29443359 405.31323242 C455.62275146 406.76693237 455.62275146 406.76693237 454.9375 408.25 C454.46650879 409.25329346 453.99551758 410.25658691 453.51025391 411.2902832 C451.99721158 414.52246416 450.49804411 417.76084374 449 421 C447.9570648 423.23829688 446.91409616 425.47657818 445.87109375 427.71484375 C444.87134181 429.87190763 443.87261282 432.02944597 442.875 434.1875 C442.4018335 435.20811523 441.92866699 436.22873047 441.44116211 437.28027344 C441.00425049 438.23321289 440.56733887 439.18615234 440.1171875 440.16796875 C439.73159668 441.00610107 439.34600586 441.8442334 438.94873047 442.70776367 C438.08278712 444.7999773 437.47833695 446.79094722 437 449 C436.34 449 435.68 449 435 449 C434.72615479 448.29689697 434.45230957 447.59379395 434.17016602 446.86938477 C432.95776629 443.89643797 431.6375771 440.99806355 430.27734375 438.08984375 C429.74278564 436.94370605 429.20822754 435.79756836 428.6574707 434.61669922 C428.08417149 433.3902881 427.51084744 432.16388858 426.9375 430.9375 C422.43313226 421.29014996 417.98005772 411.62390186 413.71655273 401.86694336 C411.86780461 397.6030577 411.86780461 397.6030577 409 394 C406.25338854 393.82575261 403.61892434 393.76816789 400.875 393.8125 C400.14023437 393.81314453 399.40546875 393.81378906 398.6484375 393.81445312 C395.00171156 393.84334444 391.46619054 394.0473991 387.84768677 394.50907898 Z M504.6875 433.1875 C497.69590373 441.97081453 496.87887158 453.21199902 498 464 C500.15812429 474.36627116 504.92719064 482.60720033 513.6875 488.6796875 C523.55003267 494.31066054 534.42325132 495.85570481 545.4609375 493.15234375 C555.58881033 489.67014971 562.43824216 484.52983526 567.4375 475 C568.3280946 473.01595314 569.18663069 471.01693606 570 469 C570.2784375 468.32195312 570.556875 467.64390625 570.84375 466.9453125 C573.70144367 458.18422532 571.98107666 447.45952244 568.22265625 439.2421875 C563.16067882 429.95920013 555.96925935 423.36833908 545.96875 419.6953125 C529.47668245 415.83269668 516.22446095 421.33247747 504.6875 433.1875 Z M601 426 C600.34 424.02 599.68 422.04 599 420 C597.12508307 419.97269538 595.25004775 419.95346756 593.375 419.9375 C592.33085938 419.92589844 591.28671875 419.91429687 590.2109375 419.90234375 C586.51479375 419.94279907 586.51479375 419.94279907 581 421 C581 444.43 581 467.86 581 492 C586.94 492 592.88 492 599 492 C600.52919402 490.47080598 600.13206594 489.08991849 600.1418457 486.95849609 C600.14888016 486.10025238 600.15591461 485.24200867 600.16316223 484.35775757 C600.16732651 483.42243195 600.17149078 482.48710632 600.17578125 481.5234375 C600.19899267 479.55337489 600.22311053 477.58332278 600.24804688 475.61328125 C600.28308063 472.49944167 600.31245247 469.38598476 600.32592773 466.27197266 C600.34146057 463.27198403 600.38172117 460.27312549 600.42578125 457.2734375 C600.42387283 456.35025726 600.42196442 455.42707703 600.41999817 454.47592163 C600.53260843 448.48615583 601.48271906 444.89650451 605 440 C609.31733382 437.0258367 612.81076076 436.3513451 618 437 C622.48598397 439.15672306 624.54431946 441.27919142 626.39541626 445.8899231 C627.56319372 449.9656203 627.48265693 454.09563682 627.51171875 458.30859375 C627.52966995 459.27531509 627.54762115 460.24203644 627.56611633 461.23805237 C627.61999511 464.30449147 627.65404309 467.37077692 627.6875 470.4375 C627.72069286 472.5254119 627.75518433 474.61330359 627.79101562 476.70117188 C627.87570875 481.80066999 627.94262679 486.90012431 628 492 C630.97922593 492.02683987 633.95821295 492.04676037 636.9375 492.0625 C637.78763672 492.07087891 638.63777344 492.07925781 639.51367188 492.08789062 C640.32255859 492.09111328 641.13144531 492.09433594 641.96484375 492.09765625 C642.7137085 492.10289307 643.46257324 492.10812988 644.23413086 492.11352539 C646.02667739 492.19341752 646.02667739 492.19341752 647 491 C647.1139102 488.04943859 647.16420552 485.12326825 647.16796875 482.171875 C647.17129715 481.27188782 647.17462555 480.37190063 647.17805481 479.44464111 C647.18313377 477.52787793 647.18546284 475.61110585 647.18530273 473.69433594 C647.18745979 470.80387997 647.20552191 467.91382431 647.22460938 465.0234375 C647.854017 444.08797357 647.854017 444.08797357 638.36328125 426.2890625 C631.02442868 419.52742305 624.56112552 418.34327579 614.6875 418.5 C608.92101342 419.28189649 605.05136006 421.94863994 601 426 Z M673 424 C672.31292969 424.37253906 671.62585938 424.74507813 670.91796875 425.12890625 C663.58900242 429.71150611 659.37536241 437.84803123 656.69140625 445.84375 C654.06488704 457.83373602 655.51307734 469.83888944 662.0625 480.25 C665.89752787 485.39297422 670.23609734 488.30067619 676 491 C677.08087891 491.50853516 677.08087891 491.50853516 678.18359375 492.02734375 C688.38571758 496.08947379 698.78948293 494.56552235 708.76171875 490.60546875 C717.30043677 486.37215982 722.931509 480.06669702 726 471 C726 469.68 726 468.36 726 467 C723.04200997 465.52100499 720.3516424 465.86821126 717.0625 465.875 C715.19271484 465.87113281 715.19271484 465.87113281 713.28515625 465.8671875 C709.99323703 465.84800569 709.99323703 465.84800569 707 467 C705.39361414 468.94908151 704.01825415 471.00251191 702.59765625 473.08984375 C700.17179086 475.99020604 698.13942826 476.8519776 694.4140625 477.3359375 C688.4643111 477.41926735 684.52717911 477.30082015 680 473 C678.01655843 469.71706223 676.869933 466.70320104 676 463 C676.60943451 463.00666183 677.21886902 463.01332367 677.84677124 463.02018738 C684.17285909 463.08640579 690.49884898 463.13174421 696.82519531 463.16479492 C699.1881917 463.179909 701.55115991 463.20040076 703.9140625 463.22631836 C707.30475809 463.26258629 710.69508379 463.27969999 714.0859375 463.29296875 C715.14743011 463.30845261 716.20892273 463.32393646 717.30258179 463.33988953 C718.28344757 463.34011612 719.26431335 463.34034271 720.27490234 463.34057617 C721.14094086 463.34723801 722.00697937 463.35389984 722.89926147 463.36076355 C723.59250519 463.24171158 724.2857489 463.12265961 725 463 C728.29747265 458.05379102 726.7925091 452.70346713 726 447 C723.58315667 435.48075973 717.57884594 428.23788967 707.9765625 421.6015625 C696.9861073 415.66419015 683.39182024 418.25505803 673 424 Z M729 420 C729.62675386 423.55572247 730.56490229 426.77100302 731.85546875 430.140625 C732.22744385 431.11990967 732.59941895 432.09919434 732.98266602 433.1081543 C733.38026123 434.14496338 733.77785645 435.18177246 734.1875 436.25 C736.89072439 443.37028558 739.56827017 450.49114917 742.0625 457.6875 C745.83343902 468.53412587 749.84895478 479.32568019 754.2109375 489.94921875 C755.20562715 492.534427 755.42235547 494.25468943 755 497 C752.75675109 500.23027843 751.3572618 500.91706423 747.5 501.8125 C744.60071148 501.96781903 742.68958436 501.96825037 740 501 C738.86103837 505.34492771 739.06899529 509.38620785 739.4375 513.8125 C739.48970703 514.50537109 739.54191406 515.19824219 739.59570312 515.91210938 C739.72439819 517.60854437 739.86136184 519.30434863 740 521 C750.322553 520.72473192 759.65153135 520.43809101 767.9375 513.5625 C778.10822092 500.92614976 782.07661521 482.65327376 787.33251953 467.58374023 C788.41087576 464.49598663 789.49303231 461.40961135 790.578125 458.32421875 C790.93370483 457.31293915 791.28928467 456.30165955 791.65563965 455.25973511 C794.65072669 446.82104294 797.88433087 438.48531236 801.24493408 430.18571472 C801.60593201 429.28500748 801.96692993 428.38430023 802.33886719 427.45629883 C802.66022644 426.66556473 802.98158569 425.87483063 803.31268311 425.06013489 C804.15823929 422.88766089 804.15823929 422.88766089 804 420 C797.07 420 790.14 420 783 420 C778.14678675 434.36551123 773.36340552 448.73026399 769.09375 463.28125 C768.43184162 465.5317385 767.74181003 467.77456992 767 470 C766.61972656 468.85789062 766.23945312 467.71578125 765.84765625 466.5390625 C764.59322508 462.77503238 763.33483817 459.01233935 762.07479858 455.25018311 C761.11020701 452.36925063 760.14696049 449.48786917 759.18383789 446.60644531 C758.685022 445.11505598 758.1856703 443.62384575 757.68579102 442.1328125 C756.95445297 439.95099929 756.22509359 437.76853291 755.49609375 435.5859375 C755.16477699 434.59972916 755.16477699 434.59972916 754.82676697 433.59359741 C753.43616648 429.42229518 752.18096083 425.23396835 751 421 C746.37540756 419.82299952 741.92133538 419.88591588 737.1875 419.9375 C736.39923828 419.94201172 735.61097656 419.94652344 734.79882812 419.95117188 C732.86585239 419.96288688 730.93291607 419.98082002 729 420 Z M498.625 510.6875 C496.33063024 515.36448451 496.13385477 519.1653429 497.6875 524.25 C500.1421756 527.52290081 502.17297116 529.66753565 506.33984375 530.42578125 C510.67860132 530.65413691 513.98911795 530.53839368 517.5 527.8125 C520.40823763 524.54073267 521.91830084 522.50714296 522.0625 518.08203125 C521.82309373 514.09442064 521.25362741 512.31532056 518.6875 509.125 C515.57823123 506.66650841 513.56343175 505.2057147 509.625 504.6875 C504.77119412 505.26533403 501.84332855 507.04570717 498.625 510.6875 Z M384 511 C383.90469019 514.04402422 383.87448361 517.06531708 383.88647461 520.10961914 C383.88632858 521.06561508 383.88618256 522.02161102 383.8860321 523.00657654 C383.88673165 526.18279245 383.89452597 529.35895052 383.90234375 532.53515625 C383.90420778 534.73091093 383.90563175 536.92666602 383.90663147 539.12242126 C383.91045781 544.91420633 383.92028909 550.7059665 383.93133545 556.4977417 C383.94154707 562.40278791 383.94612855 568.30783813 383.95117188 574.21289062 C383.96191126 585.80860648 383.97950899 597.40429728 384 609 C390.6 609 397.2 609 404 609 C404 586.89 404 564.78 404 542 C404.66 542 405.32 542 406 542 C406.24492187 542.82757812 406.48984375 543.65515625 406.7421875 544.5078125 C408.19277785 548.53522796 410.07769887 552.12623149 412.125 555.875 C417.17798124 565.26514064 422.05093716 574.74942535 426.6015625 584.39453125 C427.73543632 587.10796416 427.73543632 587.10796416 430 588 C432.68816166 588.46677296 432.68816166 588.46677296 435.75 588.625 C436.77609375 588.72039062 437.8021875 588.81578125 438.859375 588.9140625 C443.18905163 587.65393273 444.27391497 585.45443765 446.54443359 581.68310547 C449.0213767 577.11725428 451.26771005 572.4685825 453.4375 567.75 C457.34587506 559.31341948 461.57875187 551.21088938 466 543 C466 564.78 466 586.56 466 609 C472.6 609 479.2 609 486 609 C486.15298607 596.23971257 486.30174571 583.47939541 486.4429636 570.71897221 C486.50870045 564.79446542 486.57632526 558.86999247 486.64819336 552.94555664 C486.71741905 547.23331908 486.7817788 541.52104592 486.84269524 535.80871391 C486.86686072 533.62409902 486.8928107 531.43950314 486.92053413 529.2549305 C486.95892192 526.20652368 486.99109185 523.15811228 487.02172852 520.10961914 C487.03467453 519.19684204 487.04762054 518.28406494 487.06095886 517.34362793 C487.07898082 515.22906446 487.04529762 513.11415506 487 511 C484.48065802 508.48065802 478.12461642 509.52523187 474.75 509.4375 C473.17412109 509.3437207 473.17412109 509.3437207 471.56640625 509.24804688 C466.0343852 509.00044812 466.0343852 509.00044812 461.32177734 511.44726562 C459.94219356 513.568046 458.96847299 515.66289944 458 518 C457.60683594 518.82330811 457.21367187 519.64661621 456.80859375 520.49487305 C455.53074618 523.18485303 454.32325943 525.89871105 453.125 528.625 C449.7505726 536.1894568 446.23648574 543.62142434 442.46484375 550.99609375 C440.68097417 554.65421563 439.20384728 558.38027882 437.82421875 562.20703125 C437 564 437 564 435 565 C434.88986572 564.45682129 434.77973145 563.91364258 434.66625977 563.35400391 C433.85624108 560.49207639 432.6503498 558.00709597 431.33984375 555.3359375 C430.79690674 554.2217041 430.25396973 553.1074707 429.69458008 551.95947266 C429.11474365 550.77659668 428.53490723 549.5937207 427.9375 548.375 C415.65173685 523.14150069 415.65173685 523.14150069 411.91796875 513.0859375 C411.18961876 510.82875764 411.18961876 510.82875764 409 510 C407.19865652 509.90345717 405.39377131 509.8692456 403.58984375 509.8671875 C402.51798828 509.86589844 401.44613281 509.86460937 400.34179688 509.86328125 C399.21837891 509.86714844 398.09496094 509.87101562 396.9375 509.875 C395.81021484 509.87113281 394.68292969 509.86726563 393.52148438 509.86328125 C392.45091797 509.86457031 391.38035156 509.86585938 390.27734375 509.8671875 C388.79609009 509.86887939 388.79609009 509.86887939 387.28491211 509.87060547 C385.03438569 509.74361555 385.03438569 509.74361555 384 511 Z M552 543 C551.67 541.35 551.34 539.7 551 538 C545.06 538 539.12 538 533 538 C531.57493652 540.85012695 531.87271693 543.26716247 531.87060547 546.45336914 C531.86885315 547.1152977 531.86710083 547.77722626 531.86529541 548.45921326 C531.86088736 550.65122077 531.86381086 552.84314789 531.8671875 555.03515625 C531.86651424 556.55447912 531.86554403 558.07380189 531.86428833 559.59312439 C531.86281284 562.77832057 531.86496143 565.96348872 531.86962891 569.14868164 C531.87533096 573.24020901 531.87204325 577.33167086 531.86605644 581.42319584 C531.86245094 584.5603434 531.86358928 587.69747531 531.86618423 590.83462334 C531.86685328 592.34377487 531.86602585 593.85292781 531.86370468 595.36207771 C531.8611778 597.46676552 531.86501897 599.57134565 531.87060547 601.67602539 C531.87140106 602.87578506 531.87219666 604.07554474 531.87301636 605.31166077 C531.69394393 607.9182627 531.69394393 607.9182627 533 609 C534.33043625 609.0983721 535.66593344 609.13078592 537 609.1328125 C537.804375 609.13410156 538.60875 609.13539063 539.4375 609.13671875 C540.7059375 609.13091797 540.7059375 609.13091797 542 609.125 C542.845625 609.12886719 543.69125 609.13273438 544.5625 609.13671875 C545.366875 609.13542969 546.17125 609.13414062 547 609.1328125 C548.11375 609.13112061 548.11375 609.13112061 549.25 609.12939453 C551.02825811 609.18942216 551.02825811 609.18942216 552 608 C552.10641637 606.6454088 552.14616814 605.28547354 552.15771484 603.92675781 C552.17310806 602.62970917 552.17310806 602.62970917 552.18881226 601.30645752 C552.19611359 600.36485779 552.20341492 599.42325806 552.2109375 598.453125 C552.23901398 596.47395017 552.2676785 594.49478362 552.296875 592.515625 C552.33810488 589.38411762 552.37497671 586.25276331 552.40136719 583.12109375 C552.42899831 580.1064426 552.47488129 577.09250205 552.5234375 574.078125 C552.52669037 573.14462219 552.52994324 572.21111938 552.53329468 571.24932861 C552.62555432 566.36354978 552.80231048 562.95648005 556 559 C560.98356966 555.14353479 565.87264903 554.48073297 572 555 C572.99 555.33 573.98 555.66 575 556 C576.19341752 555.02667739 576.19341752 555.02667739 576.11352539 553.23413086 C576.10828857 552.48526611 576.10305176 551.73640137 576.09765625 550.96484375 C576.09443359 550.15595703 576.09121094 549.34707031 576.08789062 548.51367188 C576.07951172 547.66353516 576.07113281 546.81339844 576.0625 545.9375 C576.05798828 545.08349609 576.05347656 544.22949219 576.04882812 543.34960938 C576.03700373 541.23304337 576.01906769 539.11651315 576 537 C567.57854721 532.7892736 558.94483277 538.37011149 552 543 Z M602 544 C602.33 542.35 602.66 540.7 603 539 C596.73 538.67 590.46 538.34 584 538 C582.57493652 540.85012695 582.87271693 543.26716247 582.87060547 546.45336914 C582.86885315 547.1152977 582.86710083 547.77722626 582.86529541 548.45921326 C582.86088736 550.65122077 582.86381086 552.84314789 582.8671875 555.03515625 C582.86651424 556.55447912 582.86554403 558.07380189 582.86428833 559.59312439 C582.86281284 562.77832057 582.86496143 565.96348872 582.86962891 569.14868164 C582.87533096 573.24020901 582.87204325 577.33167086 582.86605644 581.42319584 C582.86245094 584.5603434 582.86358928 587.69747531 582.86618423 590.83462334 C582.86685328 592.34377487 582.86602585 593.85292781 582.86370468 595.36207771 C582.8611778 597.46676552 582.86501897 599.57134565 582.87060547 601.67602539 C582.87140106 602.87578506 582.87219666 604.07554474 582.87301636 605.31166077 C582.69394393 607.9182627 582.69394393 607.9182627 584 609 C585.34267413 609.08631874 586.68974322 609.10706473 588.03515625 609.09765625 C588.84404297 609.09443359 589.65292969 609.09121094 590.48632812 609.08789062 C591.33646484 609.07951172 592.18660156 609.07113281 593.0625 609.0625 C593.91650391 609.05798828 594.77050781 609.05347656 595.65039062 609.04882812 C597.76695663 609.03700373 599.88348685 609.01906769 602 609 C603.22383115 605.32850656 603.0672687 601.99937368 602.9921875 598.18359375 C602.97465092 596.59831392 602.95774463 595.01302701 602.94140625 593.42773438 C602.91064002 590.94177378 602.87535111 588.45617329 602.82861328 585.97045898 C602.48481638 566.65795761 602.48481638 566.65795761 606 560 C610.04622378 556.54385052 613.68787352 554.85487831 619 554.875 C619.680625 554.87242187 620.36125 554.86984375 621.0625 554.8671875 C623 555 623 555 626 556 C627.19341752 555.02667739 627.19341752 555.02667739 627.11352539 553.23413086 C627.10828857 552.48526611 627.10305176 551.73640137 627.09765625 550.96484375 C627.09443359 550.15595703 627.09121094 549.34707031 627.08789062 548.51367188 C627.07951172 547.66353516 627.07113281 546.81339844 627.0625 545.9375 C627.05798828 545.08349609 627.05347656 544.22949219 627.04882812 543.34960938 C627.03700373 541.23304337 627.01906769 539.11651315 627 537 C617.3009767 533.76699223 609.61848795 538.04150369 602 544 Z M637.54296875 548.5859375 C636.19100113 550.32593208 635.0875721 552.08417014 634 554 C633.41025391 554.97259766 633.41025391 554.97259766 632.80859375 555.96484375 C628.16745053 565.16627404 628.73826081 577.23173019 630.58984375 587.1640625 C633.32907861 595.11667984 639.5571923 601.43477073 646.1875 606.375 C657.50574951 611.87619569 667.61574097 613.14405911 679.5 609.4375 C689.49895946 605.49165886 696.6097797 598.7946829 701 589 C705.41016434 577.12777051 704.65785478 567.73197173 700 556 C695.35879851 546.39851442 686.74457163 540.24597955 676.82421875 536.6640625 C662.29965222 533.24888088 647.65681566 537.57729985 637.54296875 548.5859375 Z M732 543 C731.67 541.35 731.34 539.7 731 538 C728.02077407 537.97316013 725.04178705 537.95323963 722.0625 537.9375 C721.21236328 537.92912109 720.36222656 537.92074219 719.48632812 537.91210938 C718.67744141 537.90888672 717.86855469 537.90566406 717.03515625 537.90234375 C716.2862915 537.89710693 715.53742676 537.89187012 714.76586914 537.88647461 C712.97332261 537.80658248 712.97332261 537.80658248 712 539 C711.90570658 541.17805719 711.88257462 543.3592128 711.88647461 545.53930664 C711.88632858 546.22220261 711.88618256 546.90509857 711.8860321 547.60868835 C711.88673124 549.87587614 711.8945236 552.14298274 711.90234375 554.41015625 C711.90420793 555.97814387 711.90563183 557.54613207 711.90663147 559.11412048 C711.91045666 563.24876503 711.92028694 567.38337466 711.93133545 571.51800537 C711.94154956 575.73400398 711.94612909 579.95000822 711.95117188 584.16601562 C711.96190921 592.44402647 711.97898564 600.7220089 712 609 C715.14581423 609.02888514 718.29159469 609.04675923 721.4375 609.0625 C722.33533203 609.07087891 723.23316406 609.07925781 724.15820312 609.08789062 C725.43920898 609.09272461 725.43920898 609.09272461 726.74609375 609.09765625 C727.93223267 609.10551147 727.93223267 609.10551147 729.14233398 609.11352539 C731.01592689 609.20495909 731.01592689 609.20495909 732 608 C732.11103743 604.90815225 732.16168205 601.83490728 732.17578125 598.7421875 C732.19899319 596.81769756 732.22311107 594.89321837 732.24804688 592.96875 C732.28307603 589.92733724 732.31244986 586.88631588 732.32592773 583.84472656 C732.34146465 580.9142258 732.38172797 577.98488067 732.42578125 575.0546875 C732.42387283 574.15338104 732.42196442 573.25207458 732.41999817 572.32345581 C732.53398027 566.39910127 733.50034426 562.83257633 737 558 C742.14468833 554.93297426 746.19120615 554.61274708 752 555 C752.99 555.33 753.98 555.66 755 556 C756.20495909 555.01592689 756.20495909 555.01592689 756.11352539 553.14233398 C756.10828857 552.35157471 756.10305176 551.56081543 756.09765625 550.74609375 C756.09443359 549.89208984 756.09121094 549.03808594 756.08789062 548.15820312 C756.07951172 547.26037109 756.07113281 546.36253906 756.0625 545.4375 C756.05798828 544.53580078 756.05347656 543.63410156 756.04882812 542.70507812 C756.03700225 540.46998686 756.0205222 538.23502563 756 536 C746.72688244 535.42604614 739.374114 537.12427903 732 543 Z M500 538 C500 561.43 500 584.86 500 609 C505.61 609 511.22 609 517 609 C518.31747011 607.907817 518.31747011 607.907817 518.12025452 605.22227478 C518.11803391 603.98095291 518.11581329 602.73963104 518.11352539 601.46069336 C518.11367142 600.77779739 518.11381744 600.09490143 518.1139679 599.39131165 C518.11326876 597.12412386 518.1054764 594.85701726 518.09765625 592.58984375 C518.09579207 591.02185613 518.09436817 589.45386793 518.09336853 587.88587952 C518.08954334 583.75123497 518.07971306 579.61662534 518.06866455 575.48199463 C518.05845044 571.26599602 518.05387091 567.04999178 518.04882812 562.83398438 C518.03809078 554.55597174 518.02049399 546.27799423 518 538 C512.06 538 506.12 538 500 538 Z " fill="#FFFFFF" transform="translate(0,0)"/>
<path d="M0 0 C0.7835939 0.23800323 1.56718781 0.47600647 2.37452698 0.72122192 C4.91989375 1.49581783 7.46183039 2.28108511 10.00390625 3.06640625 C12.67851802 3.88340518 15.35395461 4.69766274 18.02944946 5.51176453 C19.84806417 6.06531317 21.66640216 6.61977171 23.48446655 7.17512512 C29.4711798 9.00170099 35.46803996 10.789516 41.4765625 12.54296875 C42.25269394 12.76958694 43.02882538 12.99620514 43.82847595 13.22969055 C46.78987848 14.09332248 49.75165819 14.95560046 52.71481323 15.8132019 C54.72860352 16.39632944 56.74131099 16.98307617 58.75390625 17.5703125 C59.88183594 17.89717041 61.00976562 18.22402832 62.171875 18.56079102 C64.75098098 19.37232645 67.25301866 20.24004795 69.77856445 21.19566345 C70.49043411 21.46446288 71.20230377 21.73326231 71.93574524 22.01020718 C72.47386337 22.21437787 73.01198151 22.41854856 73.56640625 22.62890625 C73.68401443 36.75598991 73.7714348 50.88299598 73.82546711 65.01047134 C73.85141689 71.57242209 73.88654473 78.13404096 73.94360352 84.69580078 C73.99844834 91.0436193 74.0279363 97.39112122 74.04079247 103.73915863 C74.049939 106.14534225 74.06779606 108.5515111 74.09505653 110.95755768 C74.30046477 129.86132878 72.53408606 147.460361 63.87890625 164.56640625 C63.24251221 165.86578125 63.24251221 165.86578125 62.59326172 167.19140625 C58.75678857 174.76558347 54.08774397 181.19703214 48.56640625 187.62890625 C47.85226562 188.56734375 47.138125 189.50578125 46.40234375 190.47265625 C45.79648437 191.18421875 45.190625 191.89578125 44.56640625 192.62890625 C43.90640625 192.62890625 43.24640625 192.62890625 42.56640625 192.62890625 C42.23640625 193.61890625 41.90640625 194.60890625 41.56640625 195.62890625 C38.59102294 198.40555212 35.36038995 200.86381463 32.15771484 203.37304688 C30.64028809 204.57059877 29.1437391 205.79446488 27.6484375 207.01953125 C18.25124082 214.55673946 8.07057747 220.75214155 -2.43359375 226.62890625 C-3.30064941 227.12438965 -4.16770508 227.61987305 -5.06103516 228.13037109 C-11.45463968 231.59920347 -11.45463968 231.59920347 -15.5234375 231.72265625 C-19.56794334 230.20257352 -23.25026873 228.27376064 -26.99609375 226.12890625 C-27.78894775 225.68039307 -28.58180176 225.23187988 -29.39868164 224.76977539 C-40.5209331 218.38933405 -50.68744413 210.96193702 -60.43359375 202.62890625 C-61.26503906 201.9328125 -62.09648437 201.23671875 -62.953125 200.51953125 C-84.20826356 182.17651403 -96.50290436 158.08423541 -101.43359375 130.62890625 C-101.51716164 129.07616789 -101.55567551 127.52048434 -101.55384827 125.96549988 C-101.55522293 125.05831207 -101.5565976 124.15112427 -101.55801392 123.21644592 C-101.55441864 122.23389328 -101.55082336 121.25134064 -101.54711914 120.23901367 C-101.54733818 118.6724704 -101.54733818 118.6724704 -101.54756165 117.07427979 C-101.54686584 113.62762362 -101.53908893 110.18102171 -101.53125 106.734375 C-101.52938464 104.34255503 -101.52796129 101.95073467 -101.52696228 99.55891418 C-101.52314639 93.26741478 -101.51332399 86.97593851 -101.5022583 80.68444824 C-101.49202426 74.26294264 -101.48746039 67.84143329 -101.48242188 61.41992188 C-101.47170091 48.82290681 -101.45482815 36.22590776 -101.43359375 23.62890625 C-97.94632261 21.82652158 -94.57162842 20.21903071 -90.82226562 19.05419922 C-89.95754135 18.78288177 -89.09281708 18.51156433 -88.20188904 18.23202515 C-87.27803909 17.94791779 -86.35418915 17.66381042 -85.40234375 17.37109375 C-84.42568253 17.06628082 -83.4490213 16.7614679 -82.44276428 16.44741821 C-79.27478941 15.46050986 -76.10445121 14.48151046 -72.93359375 13.50390625 C-70.75510243 12.8301574 -68.57663574 12.15632895 -66.39819336 11.48242188 C-63.13756949 10.47452051 -59.87661469 9.46774489 -56.61473083 8.46392822 C-51.09852482 6.76599992 -45.58824026 5.05239304 -40.08914185 3.29983521 C-37.98833446 2.63157939 -35.88538928 1.97066896 -33.78125 1.31298828 C-31.33583802 0.5480084 -28.89409536 -0.22884792 -26.45703125 -1.02001953 C-25.37808594 -1.35243652 -24.29914063 -1.68485352 -23.1875 -2.02734375 C-22.28330322 -2.31416016 -21.37910645 -2.60097656 -20.44750977 -2.89648438 C-13.41445926 -4.00399755 -6.68353204 -2.0923019 0 0 Z M40.8359375 36.25390625 C40.08551682 36.52025879 39.33509613 36.78661133 38.56193542 37.06103516 C36.16599691 37.91258629 33.77245252 38.77065683 31.37890625 39.62890625 C29.75471074 40.2074622 28.13036352 40.78559245 26.50585938 41.36328125 C22.52426462 42.78022295 18.54480463 44.20301591 14.56640625 45.62890625 C15.37078125 46.37140625 16.17515625 47.11390625 17.00390625 47.87890625 C20.48354064 51.61314804 20.48354064 51.61314804 20.56640625 54.62890625 C18.87323151 56.9604413 17.20299728 58.96765287 15.25390625 61.06640625 C14.14018269 62.30716802 13.02956497 63.55072378 11.921875 64.796875 C11.07761963 65.74506104 11.07761963 65.74506104 10.21630859 66.71240234 C6.82130115 70.65599637 3.79372242 74.88490748 0.72265625 79.08203125 C-1.28788872 81.45680538 -2.56089591 82.55817342 -5.43359375 83.62890625 C-6.38621094 82.93023437 -7.33882813 82.2315625 -8.3203125 81.51171875 C-9.58703786 80.59216997 -10.85397623 79.67291456 -12.12109375 78.75390625 C-12.74693359 78.29371094 -13.37277344 77.83351563 -14.01757812 77.359375 C-18.85176389 73.67434035 -18.85176389 73.67434035 -24.43359375 71.62890625 C-28.70422922 74.14171721 -32.12880113 77.07901108 -35.61279297 80.58105469 C-36.09159409 81.05956375 -36.5703952 81.53807281 -37.06370544 82.03108215 C-38.62669245 83.59544946 -40.18249701 85.16675339 -41.73828125 86.73828125 C-42.82785913 87.83159389 -43.91788284 88.92446239 -45.0083313 90.01690674 C-47.86338602 92.87956146 -50.71238063 95.74817308 -53.56011963 98.61810303 C-56.4726142 101.55113462 -59.39084897 104.47844286 -62.30859375 107.40625 C-68.02253381 113.14157581 -73.73007913 118.8832128 -79.43359375 124.62890625 C-79.10359375 125.28890625 -78.77359375 125.94890625 -78.43359375 126.62890625 C-72.07823436 128.03695368 -65.84199922 128.76399432 -60.09924316 125.16662598 C-54.03386199 120.26872814 -48.82695431 114.47730549 -43.55859375 108.75390625 C-41.91787266 107.03281802 -40.27336769 105.31532863 -38.625 103.6015625 C-35.02535144 99.84536143 -31.46382778 96.05715784 -27.93313599 92.2361145 C-26.79028045 91.01120279 -25.61818808 89.81350058 -24.43359375 88.62890625 C-12.43359375 96.62890625 -12.43359375 96.62890625 -9.2265625 98.859375 C-5.88700136 100.97520884 -4.31168696 101.37151984 -0.43359375 100.62890625 C1.55098204 99.01979074 2.93405807 97.5616065 4.56640625 95.62890625 C5.22511719 94.9121875 5.88382812 94.19546875 6.5625 93.45703125 C11.30486819 88.2954936 15.80467506 82.96991791 20.21484375 77.5234375 C22.8273592 74.30770005 25.47337554 71.12162034 28.12890625 67.94140625 C28.57097412 67.4117627 29.01304199 66.88211914 29.46850586 66.33642578 C30.50071907 65.10023491 31.53349712 63.86451571 32.56640625 62.62890625 C35.96852924 64.24273382 38.66965144 66.21494391 41.56640625 68.62890625 C44.09826608 66.09704642 44.37386592 64.1998686 45.2578125 60.73828125 C45.56267578 59.55363281 45.86753906 58.36898437 46.18164062 57.1484375 C46.49423828 55.90449219 46.80683594 54.66054688 47.12890625 53.37890625 C47.44537109 52.15042969 47.76183594 50.92195313 48.08789062 49.65625 C49.4476141 44.32705778 50.72383038 39.06758273 51.56640625 33.62890625 C47.66607246 33.62890625 44.45777206 34.948432 40.8359375 36.25390625 Z M18.56640625 91.62890625 C18.47126033 94.33728711 18.44085693 97.02009138 18.45288086 99.72875977 C18.45273483 100.57746643 18.45258881 101.4261731 18.45243835 102.30059814 C18.45313777 105.11969516 18.46093147 107.93872696 18.46875 110.7578125 C18.47061408 112.70694442 18.47203803 114.6560768 18.47303772 116.60520935 C18.4768637 121.74597457 18.48669466 126.88671172 18.4977417 132.02746582 C18.5079541 137.26895773 18.51253497 142.51045415 18.51757812 147.75195312 C18.52831686 158.04428319 18.54539424 168.33659239 18.56640625 178.62890625 C23.04555953 178.65776963 27.52468916 178.67565812 32.00390625 178.69140625 C33.28330078 178.69978516 34.56269531 178.70816406 35.88085938 178.71679688 C37.70327148 178.72163086 37.70327148 178.72163086 39.5625 178.7265625 C40.68841553 178.73179932 41.81433105 178.73703613 42.97436523 178.74243164 C45.49611496 178.92436073 45.49611496 178.92436073 46.56640625 177.62890625 C46.66685678 174.95640558 46.70257274 172.30972044 46.69580078 169.63671875 C46.6975531 168.79937195 46.69930542 167.96202515 46.70111084 167.0993042 C46.70553026 164.31748411 46.70259105 161.53572704 46.69921875 158.75390625 C46.69989176 156.82958972 46.70086177 154.90527327 46.70211792 152.98095703 C46.70359502 148.9423746 46.70143996 144.90381425 46.69677734 140.86523438 C46.69108005 135.67622114 46.69435899 130.48725962 46.70034981 125.29824829 C46.70395511 121.32299405 46.70281698 117.34775216 46.70022202 113.37249756 C46.69955266 111.45863845 46.70038147 109.54477823 46.70270157 107.63092041 C46.70522758 104.96094775 46.70138823 102.29106005 46.69580078 99.62109375 C46.69782501 98.82209656 46.69984924 98.02309937 46.70193481 97.19989014 C47.02257634 93.61826421 47.02257634 93.61826421 45.56640625 90.62890625 C43.65182343 90.52918839 41.73358308 90.49810036 39.81640625 90.49609375 C38.0684375 90.49416016 38.0684375 90.49416016 36.28515625 90.4921875 C34.444375 90.49798828 34.444375 90.49798828 32.56640625 90.50390625 C31.33921875 90.50003906 30.11203125 90.49617188 28.84765625 90.4921875 C27.68234375 90.49347656 26.51703125 90.49476563 25.31640625 90.49609375 C24.23875 90.49722168 23.16109375 90.49834961 22.05078125 90.49951172 C19.62420628 90.34798254 19.62420628 90.34798254 18.56640625 91.62890625 Z M-25.43359375 124.62890625 C-26.6720202 125.64527584 -26.6720202 125.64527584 -26.55384827 127.76124573 C-26.55162766 128.70056442 -26.54940704 129.63988312 -26.54711914 130.60766602 C-26.54704361 131.66869034 -26.54696808 132.72971466 -26.54689026 133.82289124 C-26.54172897 134.97704025 -26.53656769 136.13118927 -26.53125 137.3203125 C-26.52983505 138.49528793 -26.5284201 139.67026337 -26.52696228 140.88084412 C-26.52134367 144.65105689 -26.50878801 148.42121129 -26.49609375 152.19140625 C-26.49108115 154.74023352 -26.48651783 157.28906172 -26.48242188 159.83789062 C-26.47221706 166.10160334 -26.45264527 172.36518909 -26.43359375 178.62890625 C-17.52359375 178.62890625 -8.61359375 178.62890625 0.56640625 178.62890625 C0.56640625 160.80890625 0.56640625 142.98890625 0.56640625 124.62890625 C-8.01359375 124.62890625 -16.59359375 124.62890625 -25.43359375 124.62890625 Z M-70.43359375 145.62890625 C-70.43359375 156.51890625 -70.43359375 167.40890625 -70.43359375 178.62890625 C-61.52359375 178.62890625 -52.61359375 178.62890625 -43.43359375 178.62890625 C-43.43359375 167.73890625 -43.43359375 156.84890625 -43.43359375 145.62890625 C-52.34359375 145.62890625 -61.25359375 145.62890625 -70.43359375 145.62890625 Z " fill="#FFFFFF" transform="translate(263.43359375,375.37109375)"/>
<path d="M0 0 C3.93235409 1.92745583 6.8751722 4.83796162 9.01953125 8.640625 C11.33575347 15.75183357 11.38917488 24.29828683 8.8359375 31.3359375 C5.72132254 36.47291888 1.703468 39.73065775 -4.08984375 41.375 C-8.32307896 42.13093486 -11.38600297 41.73382079 -15.27734375 39.75 C-18.83912405 36.74227441 -21.97955498 33.59557755 -24.08984375 29.375 C-25.41575397 10.69860744 -25.41575397 10.69860744 -20.55859375 4.7890625 C-14.48026715 -1.06294343 -8.18057315 -2.44652655 0 0 Z " fill="#FFFFFF" transform="translate(542.08984375,436.625)"/>
<path d="M0 0 C3.3000659 3.3917344 5.25 6.52306501 5.25 11.3125 C-5.31 11.3125 -15.87 11.3125 -26.75 11.3125 C-25.65079845 4.71729072 -25.03337 3.80481488 -20.75 -0.6875 C-14.61363336 -3.75568332 -5.75234398 -3.52984744 0 0 Z " fill="#FFFFFF" transform="translate(701.75,437.6875)"/>
<path d="M0 0 C5.68518806 3.32168291 8.61346671 7.22144138 11.0859375 13.34375 C12.35424778 20.26180607 11.68812618 27.07027219 8.1875 33.265625 C4.82279718 37.61557229 0.59928788 40.54132812 -4.82421875 41.6015625 C-10.43895828 41.85562311 -13.86855426 40.82918563 -18.2265625 37.09375 C-19.3403125 36.2275 -19.3403125 36.2275 -20.4765625 35.34375 C-24.84404094 29.72842058 -24.8827921 21.92065475 -24.2265625 15.09375 C-23.1153416 8.82040295 -20.94245227 5.13261034 -15.9453125 1.1875 C-11.2279483 -1.81445904 -5.12775499 -2.08708624 0 0 Z " fill="#FFFFFF" transform="translate(673.2265625,553.90625)"/>
</svg>
